<?xml version="1.0" encoding="UTF-8" standalone="no"?>
<svg
   xmlns:dc="http://purl.org/dc/elements/1.1/"
   xmlns:cc="http://creativecommons.org/ns#"
   xmlns:rdf="http://www.w3.org/1999/02/22-rdf-syntax-ns#"
   xmlns:svg="http://www.w3.org/2000/svg"
   xmlns="http://www.w3.org/2000/svg"
   xmlns:sodipodi="http://sodipodi.sourceforge.net/DTD/sodipodi-0.dtd"
   xmlns:inkscape="http://www.inkscape.org/namespaces/inkscape"
   version="1.1"
   id="svg2"
   xml:space="preserve"
   width="898.29333"
   height="124.50667"
   viewBox="0 0 898.29333 124.50667"
   sodipodi:docname="X Studios-logo-white.eps"><metadata
     id="metadata8"><rdf:RDF><cc:Work
         rdf:about=""><dc:format>image/svg+xml</dc:format><dc:type
           rdf:resource="http://purl.org/dc/dcmitype/StillImage" /></cc:Work></rdf:RDF></metadata><defs
     id="defs6" /><sodipodi:namedview
     pagecolor="#ffffff"
     bordercolor="#666666"
     borderopacity="1"
     objecttolerance="10"
     gridtolerance="10"
     guidetolerance="10"
     inkscape:pageopacity="0"
     inkscape:pageshadow="2"
     inkscape:window-width="640"
     inkscape:window-height="480"
     id="namedview4" /><g
     id="g10"
     inkscape:groupmode="layer"
     inkscape:label="ink_ext_XXXXXX"
     transform="matrix(1.3333333,0,0,-1.3333333,0,124.50667)"><g
       id="g12"
       transform="scale(0.1)"><path
         d="m 465.922,547.109 c 0,0 25.824,25.11 37.285,36.707 106.641,107.914 214.313,214.821 321.633,322.055 23.215,23.199 47.863,39.469 80.773,17.645 39.481,-26.192 40.012,-62.118 2.989,-99.133 C 782.621,698.449 657.863,571.34 531.664,445.629 390.805,305.305 251.234,163.695 110.059,23.6953 74.1406,-11.9219 29.0273,-5.49609 7.3125,36.8789 -9.92969,70.5313 11.0039,92.2305 32.0703,113.266 L 381.613,462.805 c 0,0 -36.609,38.699 -54.183,56.047 -100.075,98.75 -199.438,198.203 -298.8245,297.632 -35.75394,35.789 -37.68753,63.801 -7.5,92.844 29.0547,27.949 55.7929,26.203 90.0505,-7.781 L 465.922,547.109"
         style="fill:#ffffff;fill-opacity:1;fill-rule:evenodd;stroke:none"
         id="path14" /><path
         d="m 626.066,360.004 c 22.434,1.492 41.325,-14.785 47.7,-21.152 C 742.711,269.906 879.785,132.836 909.043,103.566 936.395,76.4297 932.824,51.7031 908.223,25.4531 880.008,-4.63672 853.539,-7.75 826.168,19.4063 783.906,61.3203 618.68,224.887 589.215,256.359 c -15.621,16.672 -22.672,32.579 -20.485,49.661 2.875,22.421 31.211,52.246 57.336,53.984"
         style="fill:#ffffff;fill-opacity:1;fill-rule:evenodd;stroke:none"
         id="path16" /><path
         d="m 1908.28,677.141 c -19.16,118.75 -117.48,190.254 -242.61,190.254 -131.52,0 -227.28,-62.567 -227.28,-167.27 0,-108.535 132.8,-143.012 254.1,-176.207 123.85,-34.473 301.34,-84.277 301.34,-264.316 0,-146.825 -127.69,-255.35981 -320.5,-255.35981 -192.8,0 -310.27,114.90981 -329.43,261.74581 l 70.22,19.153 c 10.22,-114.914 102.16,-213.2347 261.77,-213.2347 148.11,0 241.32,79.1717 241.32,186.4297 0,148.113 -168.54,176.199 -293.68,213.23 -102.14,29.372 -260.47,72.778 -260.47,226.016 0,139.16 128.96,236.215 305.16,236.215 159.62,0 284.75,-93.219 311.56,-237.504 l -71.5,-19.152"
         style="fill:#ffffff;fill-opacity:1;fill-rule:nonzero;stroke:none"
         id="path18" /><path
         d="M 2736.92,933.797 V 863.582 H 2430.48 V 0.00390625 h -74.06 V 863.582 h -305.17 v 70.215 h 685.67"
         style="fill:#ffffff;fill-opacity:1;fill-rule:nonzero;stroke:none"
         id="path20" /><path
         d="M 3586,933.797 V 382.629 C 3586,134.926 3458.31,0.851563 3227.2,0.851563 2993.54,0.851563 2868.41,134.926 2868.41,382.629 v 551.168 h 72.77 V 380.082 c 0,-205.586 97.05,-309.0039 286.02,-309.0039 188.98,0 284.74,103.4179 284.74,309.0039 V 933.797 H 3586"
         style="fill:#ffffff;fill-opacity:1;fill-rule:nonzero;stroke:none"
         id="path22" /><path
         d="m 4177.16,70.2266 c 201.75,0 376.68,160.4614 376.68,391.5744 0,234.937 -174.93,401.781 -386.9,401.781 H 3868.15 V 70.2266 Z m -10.22,863.5704 c 255.38,0 462.23,-203.863 462.23,-471.996 0,-263.039 -204.3,-461.79709375 -452.01,-461.79709375 H 3795.37 V 933.797 h 371.57"
         style="fill:#ffffff;fill-opacity:1;fill-rule:nonzero;stroke:none"
         id="path24" /><path
         d="M 4800.23,0.00390625 V 933.797 h 72.79 V 0.00390625 h -72.79"
         style="fill:#ffffff;fill-opacity:1;fill-rule:nonzero;stroke:none"
         id="path26" /><path
         d="m 5512.71,75.7461 c 217.06,0 389.45,160.8789 389.45,393.2699 0,234.941 -172.39,393.277 -389.45,393.277 -218.34,0 -388.16,-158.336 -388.16,-393.277 0,-232.391 169.82,-393.2699 388.16,-393.2699 z m 0,858.0509 c 256.64,0 464.77,-195.367 464.77,-464.781 0,-269.422 -208.13,-464.77381 -464.77,-464.77381 -256.66,0 -463.5,195.35181 -463.5,464.77381 0,269.414 206.84,464.781 463.5,464.781"
         style="fill:#ffffff;fill-opacity:1;fill-rule:nonzero;stroke:none"
         id="path28" /><path
         d="m 6651.61,677.141 c -19.15,118.75 -117.47,190.254 -242.61,190.254 -131.5,0 -227.27,-62.567 -227.27,-167.27 0,-108.535 132.8,-143.012 254.09,-176.207 123.87,-34.473 301.35,-84.277 301.35,-264.316 0,-146.825 -127.7,-255.35981 -320.5,-255.35981 -192.8,0 -310.27,114.90981 -329.43,261.74581 l 70.23,19.153 c 10.21,-114.914 102.15,-213.2347 261.76,-213.2347 148.11,0 241.33,79.1717 241.33,186.4297 0,148.113 -168.55,176.199 -293.69,213.23 -102.14,29.372 -260.47,72.778 -260.47,226.016 0,139.16 128.95,236.215 305.16,236.215 159.61,0 284.74,-93.219 311.55,-237.504 l -71.5,-19.152"
         style="fill:#ffffff;fill-opacity:1;fill-rule:nonzero;stroke:none"
         id="path30" /></g></g></svg>
