<?xml version="1.0" encoding="UTF-8" standalone="no"?>
<svg
   xmlns:dc="http://purl.org/dc/elements/1.1/"
   xmlns:cc="http://creativecommons.org/ns#"
   xmlns:rdf="http://www.w3.org/1999/02/22-rdf-syntax-ns#"
   xmlns:svg="http://www.w3.org/2000/svg"
   xmlns="http://www.w3.org/2000/svg"
   xmlns:sodipodi="http://sodipodi.sourceforge.net/DTD/sodipodi-0.dtd"
   xmlns:inkscape="http://www.inkscape.org/namespaces/inkscape"
   version="1.1"
   id="svg2"
   xml:space="preserve"
   width="898.29333"
   height="124.50667"
   viewBox="0 0 898.29333 124.50667"
   sodipodi:docname="X Studios-logo-black.eps"><metadata
     id="metadata8"><rdf:RDF><cc:Work
         rdf:about=""><dc:format>image/svg+xml</dc:format><dc:type
           rdf:resource="http://purl.org/dc/dcmitype/StillImage" /></cc:Work></rdf:RDF></metadata><defs
     id="defs6" /><sodipodi:namedview
     pagecolor="#ffffff"
     bordercolor="#666666"
     borderopacity="1"
     objecttolerance="10"
     gridtolerance="10"
     guidetolerance="10"
     inkscape:pageopacity="0"
     inkscape:pageshadow="2"
     inkscape:window-width="640"
     inkscape:window-height="480"
     id="namedview4" /><g
     id="g10"
     inkscape:groupmode="layer"
     inkscape:label="ink_ext_XXXXXX"
     transform="matrix(1.3333333,0,0,-1.3333333,0,124.50667)"><g
       id="g12"
       transform="scale(0.1)"><path
         d="m 465.922,547.105 c 0,0 25.828,25.114 37.285,36.715 106.641,107.914 214.313,214.817 321.629,322.051 23.223,23.203 47.867,39.473 80.777,17.645 39.481,-26.192 40.008,-62.118 2.989,-99.133 C 782.621,698.453 657.863,571.34 531.664,445.633 390.805,305.313 251.234,163.695 110.059,23.6992 74.1406,-11.9219 29.0273,-5.49609 7.31641,36.875 -9.92969,70.5273 11.0039,92.2344 32.0664,113.262 L 381.617,462.809 c 0,0 -36.609,38.695 -54.187,56.046 -100.075,98.747 -199.438,198.204 -298.8245,297.625 -35.75394,35.793 -37.69144,63.805 -7.4961,92.848 29.0508,27.949 55.789,26.203 90.0466,-7.781 L 465.922,547.105"
         style="fill:#000000;fill-opacity:1;fill-rule:evenodd;stroke:none"
         id="path14" /><path
         d="m 626.066,360 c 22.434,1.496 41.325,-14.785 47.696,-21.148 C 742.711,269.902 879.781,132.836 909.043,103.57 936.398,76.4297 932.824,51.6992 908.223,25.457 880.012,-4.63672 853.539,-7.75 826.164,19.4063 783.902,61.3203 618.68,224.883 589.215,256.359 c -15.621,16.676 -22.672,32.582 -20.485,49.661 2.875,22.421 31.208,52.242 57.336,53.98"
         style="fill:#000000;fill-opacity:1;fill-rule:evenodd;stroke:none"
         id="path16" /><path
         d="m 1908.28,677.141 c -19.16,118.75 -117.48,190.254 -242.61,190.254 -131.52,0 -227.28,-62.571 -227.28,-167.27 0,-108.535 132.79,-143.012 254.1,-176.207 123.85,-34.473 301.34,-84.273 301.34,-264.313 0,-146.832 -127.69,-255.36672 -320.49,-255.36672 -192.82,0 -310.29,114.91372 -329.44,261.75772 l 70.23,19.149 c 10.21,-114.915 102.15,-213.2387 261.76,-213.2387 148.11,0 241.32,79.1757 241.32,186.4297 0,148.113 -168.54,176.195 -293.67,213.227 -102.15,29.375 -260.49,72.785 -260.49,226.015 0,139.164 128.97,236.219 305.17,236.219 159.62,0 284.75,-93.219 311.56,-237.508 l -71.5,-19.148"
         style="fill:#100f0d;fill-opacity:1;fill-rule:nonzero;stroke:none"
         id="path18" /><path
         d="M 2736.92,933.797 V 863.582 H 2430.48 V 0 h -74.06 v 863.582 h -305.17 v 70.215 h 685.67"
         style="fill:#100f0d;fill-opacity:1;fill-rule:nonzero;stroke:none"
         id="path20" /><path
         d="M 3586,933.797 V 382.637 C 3586,134.926 3458.31,0.851563 3227.2,0.851563 2993.54,0.851563 2868.41,134.926 2868.41,382.637 v 551.16 h 72.77 V 380.078 c 0,-205.578 97.05,-308.9999 286.02,-308.9999 188.98,0 284.74,103.4219 284.74,308.9999 V 933.797 H 3586"
         style="fill:#100f0d;fill-opacity:1;fill-rule:nonzero;stroke:none"
         id="path22" /><path
         d="m 4166.95,933.797 c 255.37,0 462.22,-203.863 462.22,-472 C 4629.17,198.762 4424.87,0 4177.16,0 h -381.78 v 933.797 z m 10.21,-863.5704 c 201.74,0 376.68,160.4644 376.68,391.5704 0,234.941 -174.94,401.785 -386.89,401.785 H 3868.16 V 70.2266 h 309"
         style="fill:#100f0d;fill-opacity:1;fill-rule:nonzero;stroke:none"
         id="path24" /><path
         d="m 4800.23,0 v 933.797 h 72.79 V 0 h -72.79"
         style="fill:#100f0d;fill-opacity:1;fill-rule:nonzero;stroke:none"
         id="path26" /><path
         d="m 5512.71,933.797 c 256.65,0 464.77,-195.363 464.77,-464.781 0,-269.422 -208.12,-464.77772 -464.77,-464.77772 -256.66,0 -463.5,195.35572 -463.5,464.77772 0,269.418 206.84,464.781 463.5,464.781 z m 0,-858.0548 c 217.06,0 389.45,160.8788 389.45,393.2738 0,234.945 -172.39,393.277 -389.45,393.277 -218.33,0 -388.16,-158.332 -388.16,-393.277 0,-232.395 169.83,-393.2738 388.16,-393.2738"
         style="fill:#100f0d;fill-opacity:1;fill-rule:nonzero;stroke:none"
         id="path28" /><path
         d="m 6651.61,677.141 c -19.15,118.75 -117.47,190.254 -242.61,190.254 -131.5,0 -227.27,-62.571 -227.27,-167.27 0,-108.535 132.8,-143.012 254.09,-176.207 123.86,-34.473 301.35,-84.273 301.35,-264.313 0,-146.832 -127.7,-255.36672 -320.5,-255.36672 -192.81,0 -310.28,114.91372 -329.42,261.75772 l 70.22,19.149 c 10.21,-114.915 102.15,-213.2387 261.76,-213.2387 148.11,0 241.33,79.1757 241.33,186.4297 0,148.113 -168.55,176.195 -293.69,213.227 -102.14,29.375 -260.48,72.785 -260.48,226.015 0,139.164 128.97,236.219 305.17,236.219 159.61,0 284.74,-93.219 311.56,-237.508 l -71.51,-19.148"
         style="fill:#100f0d;fill-opacity:1;fill-rule:nonzero;stroke:none"
         id="path30" /></g></g></svg>
